<svg width="60" height="60" viewBox="0 0 60 60" fill="none" xmlns="http://www.w3.org/2000/svg">
<path d="M58.1203 42.7594C58.0444 20.6719 39.2822 1.95 17.1488 1.87969L15.7838 1.875L15.4556 3.20063L2.56687 55.3256L1.875 58.125L4.67344 57.4275L56.8031 44.4516L58.125 44.1216L58.1203 42.7594ZM32.0728 48.8175C31.2778 46.6884 29.4872 44.8969 26.7956 45.5794C24.5728 46.1419 23.0747 48.7303 23.6719 50.9081L4.25437 55.7419L15.585 9.915C33.2194 12.5906 47.3963 26.7638 50.0775 44.3353L32.0728 48.8175Z" fill="#3D3D3D"/>
<path d="M13.9912 38.0644C14.6999 38.0669 15.402 37.929 16.0571 37.6587C16.7122 37.3884 17.3072 36.991 17.8078 36.4894C18.3091 35.99 18.7066 35.3963 18.9774 34.7426C19.2482 34.0888 19.3869 33.3879 19.3856 32.6803C19.3869 31.9731 19.2481 31.2727 18.9773 30.6194C18.7065 29.9662 18.309 29.373 17.8078 28.8741C17.4037 28.4719 16.6941 28.47 16.2919 28.8741C16.0918 29.0749 15.9795 29.3469 15.9797 29.6304C15.9799 29.9138 16.0925 30.1857 16.2928 30.3863C16.905 30.9966 17.2434 31.8141 17.2434 32.6813C17.2434 33.5485 16.9078 34.365 16.2947 34.9753C15.0647 36.1997 12.9178 36.1997 11.6925 34.9772C11.4891 34.7811 11.2176 34.6715 10.935 34.6715C10.6524 34.6715 10.3809 34.7811 10.1775 34.9772C10.0783 35.0764 9.99956 35.1941 9.94589 35.3237C9.89222 35.4533 9.86464 35.5923 9.86472 35.7326C9.86481 35.8728 9.89256 36.0117 9.94639 36.1413C10.0002 36.2708 10.0791 36.3885 10.1784 36.4875C10.6782 36.9893 11.2725 37.3871 11.9269 37.6578C12.5814 37.9284 13.283 38.0666 13.9912 38.0644ZM29.5509 23.6081C29.3932 24.2738 29.389 24.9666 29.5387 25.6341C29.73 26.4813 30.1556 27.2577 30.767 27.8747C31.3783 28.4917 32.1508 28.9244 32.9962 29.1235C33.2468 29.1808 33.5099 29.1367 33.7281 29.0007C33.9462 28.8648 34.1017 28.648 34.1606 28.3978C34.2105 28.1482 34.163 27.8889 34.0279 27.6732C33.8929 27.4574 33.6804 27.3014 33.4341 27.2372C32.055 26.9175 31.1137 25.4363 31.44 24.045C31.6008 23.3573 32.028 22.7616 32.6278 22.3887C33.2276 22.0158 33.9509 21.8964 34.6388 22.0566C34.8909 22.1147 35.1525 22.0725 35.3709 21.9347C35.5903 21.7978 35.745 21.5831 35.8012 21.33C35.8341 21.1894 35.8359 21.0441 35.805 20.9025C35.7644 20.7247 35.6749 20.5617 35.5464 20.4322C35.418 20.3026 35.2559 20.2116 35.0784 20.1694C34.4893 20.0308 33.8785 20.0107 33.2816 20.1103C32.6846 20.21 32.1134 20.4273 31.6012 20.7497C31.0868 21.0662 30.6406 21.4819 30.2886 21.9727C29.9366 22.4635 29.6858 23.0194 29.5509 23.6081ZM38.1028 40.0866C37.4765 39.9166 36.8199 39.89 36.1819 40.0088C35.3738 40.1591 34.6242 40.5336 34.0188 41.0896C33.4134 41.6456 32.9765 42.3607 32.7581 43.1531C32.7271 43.2694 32.7193 43.3906 32.7351 43.5098C32.7509 43.629 32.79 43.744 32.8503 43.8481C32.9105 43.9523 32.9907 44.0435 33.0862 44.1166C33.1817 44.1898 33.2906 44.2434 33.4069 44.2744C33.6414 44.3313 33.8889 44.2961 34.0982 44.1759C34.3076 44.0557 34.4628 43.8597 34.5319 43.6285C34.8816 42.3385 36.3169 41.5022 37.6219 41.8566C37.9421 41.9417 38.2422 42.0895 38.5048 42.2915C38.7675 42.4934 38.9874 42.7455 39.1519 43.0331C39.4866 43.6163 39.5766 44.2941 39.4013 44.9419C39.3605 45.0916 39.3584 45.2492 39.3954 45.3999C39.4323 45.5506 39.507 45.6894 39.6124 45.8033C39.7178 45.9171 39.8505 46.0022 39.9979 46.0507C40.1453 46.0991 40.3026 46.1092 40.455 46.08C40.6252 46.0484 40.7832 45.9696 40.9108 45.8525C41.0384 45.7355 41.1306 45.585 41.1769 45.4181C41.3268 44.8668 41.366 44.2912 41.2921 43.7246C41.2183 43.158 41.0328 42.6117 40.7466 42.1172C40.4615 41.6212 40.0811 41.1865 39.6274 40.838C39.1737 40.4895 38.6556 40.2341 38.1028 40.0866ZM34.5469 33.3263C33.3309 29.7675 29.4272 27.8503 25.8169 29.0438C22.2084 30.2391 20.2641 34.095 21.4762 37.65C22.6894 41.2144 26.595 43.1278 30.2081 41.9325C33.8109 40.74 35.7553 36.8841 34.5469 33.3263ZM37.5 36.5869C38.2284 38.7235 40.5759 39.8756 42.75 39.1575C44.9156 38.4375 46.0809 36.1238 45.3572 33.9853C44.6269 31.8488 42.2775 30.6966 40.1128 31.411C37.9434 32.131 36.7753 34.4456 37.5 36.5869ZM16.8141 21.9338C17.8097 24.8466 21.0047 26.4131 23.9578 25.4335C26.9044 24.4566 28.4962 21.3019 27.5072 18.3928C26.5106 15.4856 23.3184 13.9191 20.3653 14.895C17.4197 15.87 15.8278 19.0247 16.8141 21.9338ZM19.3209 42.7331C18.2934 39.7369 15.0028 38.1216 11.9634 39.1219C8.93156 40.1316 7.29375 43.3763 8.31093 46.3706C9.33 49.3763 12.6178 50.986 15.6656 49.9791C18.6994 48.9713 20.3362 45.7266 19.3209 42.7331Z" fill="#3D3D3D"/>
</svg>
